<svg class="variation-svg fade-enter-done" viewBox="-3 168.405 430.9100036621094 238.18749999999997"
    xmlns="http://www.w3.org/2000/svg"
    xmlns:xlink="http://www.w3.org/1999/xlink" style="transform: scale(1);">
    <image height="98.1875" width="115" y="238.405" x="67" preserveAspectRatio="xMinYMin" href="./logoC.png" xlink:href="./logoC.png" style="position: absolute;"></image>
    <g>
        <svg data-layer-type="text" x="204" y="265.5500007629395" viewBox="1.6700000762939453 18.329999923706055 153.91000366210938 43.900001525878906" height="43.900001525878906" width="153.91000366210938" style="position: absolute;">
            <g data-horizontal-grow="left" data-vertical-center="false" style="fill: rgb(73, 52, 124); font-size: 49px; font-weight: 700; font-style: normal; font-family: &quot;Playfair Display&quot;; dominant-baseline: hanging; text-transform: capitalize; fill-opacity: 1;">
                <path d="M33.76 18.33L33.76 18.33L33.76 19.26Q32.19 19.60 30.40 20.63Q28.62 21.66 26.66 23.96L26.66 23.96L17.44 34.94L20.29 30.87L31.95 49.05Q32.63 50.18 33.42 50.86Q34.20 51.55 35.48 52.04L35.48 52.04L35.48 53.02Q33.76 52.92 31.65 52.90Q29.55 52.87 27.83 52.87L27.83 52.87Q26.80 52.87 25.33 52.90Q23.86 52.92 21.61 53.02L21.61 53.02L21.61 52.04Q23.62 51.94 24.03 51.47Q24.45 51.01 23.67 49.83L23.67 49.83L16.56 38.32Q15.88 37.19 15.34 36.63Q14.80 36.06 14.26 35.84Q13.72 35.62 12.84 35.57L12.84 35.57L12.84 34.55Q14.99 34.50 16.68 33.37Q18.38 32.24 20.38 29.94L20.38 29.94L23.28 26.46Q25.14 24.25 25.46 22.66Q25.77 21.07 24.82 20.19Q23.86 19.31 21.90 19.26L21.90 19.26L21.90 18.33Q23.72 18.38 25.36 18.42Q27.00 18.47 29.16 18.47L29.16 18.47Q32.00 18.47 33.76 18.33ZM16.81 18.33L16.81 18.33L16.81 19.31Q15.24 19.35 14.43 19.67Q13.62 19.99 13.38 20.85Q13.13 21.71 13.13 23.52L13.13 23.52L13.13 47.82Q13.13 49.59 13.40 50.47Q13.67 51.35 14.46 51.65Q15.24 51.94 16.81 52.04L16.81 52.04L16.81 53.02Q15.48 52.92 13.47 52.90Q11.47 52.87 9.41 52.87L9.41 52.87Q7.06 52.87 4.97 52.90Q2.89 52.92 1.67 53.02L1.67 53.02L1.67 52.04Q3.23 51.94 4.02 51.65Q4.80 51.35 5.07 50.47Q5.34 49.59 5.34 47.82L5.34 47.82L5.34 23.52Q5.34 21.71 5.07 20.85Q4.80 19.99 3.99 19.67Q3.19 19.35 1.67 19.31L1.67 19.31L1.67 18.33Q2.89 18.38 4.97 18.42Q7.06 18.47 9.41 18.47L9.41 18.47Q11.47 18.47 13.47 18.42Q15.48 18.38 16.81 18.33ZM53.02 27.00L53.02 27.00Q54.59 27.00 55.57 27.66Q56.55 28.32 57.01 29.35Q57.48 30.38 57.48 31.51L57.48 31.51Q57.48 33.32 56.42 34.47Q55.37 35.62 53.66 35.62L53.66 35.62Q51.94 35.62 50.98 34.77Q50.03 33.91 50.03 32.49L50.03 32.49Q50.03 31.11 50.64 30.21Q51.25 29.30 52.19 28.66L52.19 28.66Q51.50 28.47 50.81 28.71L50.81 28.71Q49.54 28.91 48.53 29.91Q47.53 30.92 46.94 32.29Q46.35 33.66 46.35 34.99L46.35 34.99L46.35 47.97Q46.35 50.32 47.51 51.16Q48.66 51.99 50.96 51.99L50.96 51.99L50.96 53.02Q49.83 52.97 47.68 52.90Q45.52 52.82 43.17 52.82L43.17 52.82Q41.21 52.82 39.20 52.90Q37.19 52.97 36.16 53.02L36.16 53.02L36.16 51.99Q37.88 51.99 38.59 51.25Q39.30 50.52 39.30 48.46L39.30 48.46L39.30 33.03Q39.30 30.82 38.64 29.77Q37.98 28.71 36.16 28.71L36.16 28.71L36.16 27.68Q37.73 27.83 39.20 27.83L39.20 27.83Q41.26 27.83 43.05 27.66Q44.84 27.49 46.35 27.15L46.35 27.15L46.35 31.70Q46.94 30.38 47.92 29.30Q48.90 28.22 50.18 27.61Q51.45 27.00 53.02 27.00ZM83.01 27.68L83.01 27.68L83.01 28.66Q82.08 28.91 81.24 29.82Q80.41 30.72 79.63 32.88L79.63 32.88L72.72 52.28L70.90 55.71L60.22 31.46Q59.39 29.55 58.58 29.13Q57.77 28.71 57.18 28.71L57.18 28.71L57.18 27.68Q58.80 27.83 60.54 27.91Q62.28 27.98 63.90 27.98L63.90 27.98Q65.91 27.98 67.57 27.88Q69.24 27.78 70.71 27.68L70.71 27.68L70.71 28.71Q69.73 28.71 68.87 28.84Q68.01 28.96 67.69 29.52Q67.38 30.09 67.96 31.46L67.96 31.46L74.14 46.35L73.70 46.65L77.32 36.50Q78.69 32.54 77.76 30.70Q76.83 28.86 74.48 28.66L74.48 28.66L74.48 27.68Q75.61 27.73 76.93 27.78Q78.25 27.83 79.23 27.83L79.23 27.83Q80.21 27.83 81.29 27.78Q82.37 27.73 83.01 27.68ZM71.54 52.38L72.72 52.28L70.85 57.53Q69.92 60.02 68.70 61.01L68.70 61.01Q68.01 61.59 66.93 61.91Q65.86 62.23 64.44 62.23L64.44 62.23Q63.26 62.23 62.01 61.84Q60.76 61.45 59.93 60.56Q59.09 59.68 59.09 58.31L59.09 58.31Q59.09 56.79 60.17 55.88Q61.25 54.98 63.01 54.98L63.01 54.98Q64.63 54.98 65.66 55.76Q66.69 56.55 66.69 58.06L66.69 58.06Q66.69 59.05 66.08 59.93Q65.46 60.81 64.24 61.25L64.24 61.25Q64.48 61.30 64.83 61.30Q65.17 61.30 65.37 61.30L65.37 61.30Q66.84 61.30 67.96 60.37Q69.09 59.44 69.83 57.43L69.83 57.43L71.54 52.38ZM94.47 27.15L94.47 27.15L94.47 57.04Q94.47 59.34 95.65 60.10Q96.82 60.86 98.88 60.86L98.88 60.86L98.88 61.89Q97.61 61.84 95.38 61.76Q93.15 61.69 90.65 61.69L90.65 61.69Q88.84 61.69 87.10 61.76Q85.36 61.84 84.48 61.89L84.48 61.89L84.48 60.86Q86.09 60.86 86.75 60.17Q87.42 59.49 87.42 57.53L87.42 57.53L87.42 33.03Q87.42 30.82 86.73 29.77Q86.04 28.71 84.28 28.71L84.28 28.71L84.28 27.68Q85.85 27.83 87.32 27.83L87.32 27.83Q89.33 27.83 91.14 27.66Q92.95 27.49 94.47 27.15ZM102.07 27.00L102.07 27.00Q105.79 27.00 108.31 30.04Q110.84 33.08 110.84 39.20L110.84 39.20Q110.84 43.95 109.42 47.19Q108.00 50.42 105.47 52.06Q102.95 53.70 99.47 53.70L99.47 53.70Q97.56 53.70 95.99 53.04Q94.42 52.38 93.59 51.16L93.59 51.16L94.08 50.52Q94.57 51.40 95.48 51.89Q96.38 52.38 97.56 52.38L97.56 52.38Q99.76 52.38 101.04 50.89Q102.31 49.39 102.88 46.67Q103.44 43.95 103.44 40.18L103.44 40.18Q103.44 35.97 102.90 33.56Q102.36 31.16 101.43 30.14Q100.50 29.11 99.18 29.11L99.18 29.11Q97.41 29.11 95.97 30.48Q94.52 31.85 94.33 34.40L94.33 34.40L94.08 32.68Q94.96 29.89 97.09 28.44Q99.22 27.00 102.07 27.00ZM123.82 19.65L123.82 19.65L123.82 27.68L129.61 27.68L129.61 28.66L123.82 28.66L123.82 48.46Q123.82 49.93 124.36 50.54Q124.90 51.16 125.98 51.16L125.98 51.16Q126.86 51.16 127.74 50.49Q128.63 49.83 129.31 48.22L129.31 48.22L130.14 48.66Q129.36 50.86 127.77 52.28Q126.17 53.70 123.43 53.70L123.43 53.70Q121.81 53.70 120.59 53.29Q119.36 52.87 118.53 52.04L118.53 52.04Q117.45 50.96 117.11 49.37Q116.77 47.77 116.77 45.23L116.77 45.23L116.77 28.66L112.65 28.66L112.65 27.68L116.77 27.68L116.77 21.22Q118.83 21.22 120.56 20.85Q122.30 20.48 123.82 19.65ZM143.57 27.00L143.57 27.00Q147.15 27.00 149.84 28.32Q152.54 29.64 154.06 32.59Q155.58 35.52 155.58 40.38L155.58 40.38Q155.58 45.23 154.06 48.14Q152.54 51.06 149.84 52.38Q147.15 53.70 143.57 53.70L143.57 53.70Q140.09 53.70 137.37 52.38Q134.65 51.06 133.11 48.14Q131.56 45.23 131.56 40.38L131.56 40.38Q131.56 35.52 133.11 32.59Q134.65 29.64 137.37 28.32Q140.09 27.00 143.57 27.00ZM143.57 27.98L143.57 27.98Q141.61 27.98 140.29 30.89Q138.96 33.81 138.96 40.38L138.96 40.38Q138.96 46.94 140.29 49.83Q141.61 52.72 143.57 52.72L143.57 52.72Q145.58 52.72 146.88 49.83Q148.18 46.94 148.18 40.38L148.18 40.38Q148.18 33.81 146.88 30.89Q145.58 27.98 143.57 27.98Z" transform="translate(0, 0)"></path>
            </g>
        </svg>
    </g>
</svg>